<?xml version="1.0" standalone="no"?>
<!DOCTYPE svg PUBLIC "-//W3C//DTD SVG 20010904//EN"
 "http://www.w3.org/TR/2001/REC-SVG-20010904/DTD/svg10.dtd">
<svg version="1.0" xmlns="http://www.w3.org/2000/svg"
 width="1024.000000pt" height="1536.000000pt" viewBox="0 0 1024.000000 1536.000000"
 preserveAspectRatio="xMidYMid meet">

<g transform="translate(0.000000,1536.000000) scale(0.100000,-0.100000)"
fill="#000000" stroke="none">
<path d="M4820 11944 c-466 -63 -1037 -313 -1315 -575 -196 -186 -293 -375
-349 -682 -50 -271 -80 -655 -74 -932 8 -291 16 -497 23 -565 l7 -65 -62 3
c-109 6 -192 -45 -252 -155 -50 -92 -62 -162 -62 -348 1 -146 4 -185 26 -281
63 -270 184 -463 365 -584 75 -50 138 -75 223 -86 l47 -6 18 -102 c61 -348
180 -648 341 -857 l54 -69 0 -93 0 -93 -69 -48 c-143 -97 -387 -380 -488 -563
-20 -35 -41 -66 -47 -68 -131 -35 -709 -283 -1026 -441 -253 -126 -520 -272
-548 -298 -17 -16 84 -134 287 -336 655 -651 1457 -1073 2364 -1245 549 -104
1138 -109 1652 -14 563 104 1039 281 1513 563 405 241 798 569 1089 910 75 88
91 112 81 122 -55 51 -629 337 -943 469 -228 96 -527 217 -617 249 l-77 28
-56 95 c-123 205 -330 444 -457 528 l-58 38 0 104 0 103 44 55 c141 173 279
517 337 845 12 63 22 115 22 116 1 0 33 5 70 11 117 19 207 70 312 176 142
142 219 293 264 514 71 349 3 648 -169 736 -47 25 -64 28 -122 25 -39 -2 -64
0 -61 6 9 14 26 461 25 676 -1 489 -91 1041 -207 1271 -113 223 -275 374 -593
553 -274 154 -589 261 -897 307 -157 23 -455 24 -615 3z m574 -1799 c358 -54
659 -188 1082 -480 67 -46 145 -92 173 -102 28 -10 51 -22 51 -28 0 -6 4 -46
10 -90 18 -148 40 -479 40 -613 0 -421 -74 -903 -167 -1087 -87 -170 -281
-365 -400 -399 -19 -6 -22 -2 -28 46 -21 153 -100 270 -225 333 -119 60 -240
69 -472 33 -200 -32 -495 -31 -685 0 -151 25 -285 28 -362 7 -120 -32 -235
-112 -287 -202 -31 -52 -64 -153 -64 -195 0 -34 -10 -33 -94 9 -107 52 -192
134 -285 269 -101 150 -150 329 -198 724 -24 202 -24 731 1 984 9 99 19 183
22 188 3 4 11 8 17 8 30 0 132 59 276 159 380 264 693 397 1036 440 50 6 104
13 120 15 62 9 334 -3 439 -19z m-2309 -1175 c40 -15 121 -96 164 -164 l39
-62 12 -170 c14 -216 57 -641 69 -695 l9 -41 -41 4 c-72 9 -137 47 -218 128
-132 132 -205 317 -229 578 -27 294 56 475 195 422z m4172 -32 c64 -62 90
-203 73 -392 -15 -157 -49 -290 -106 -406 -38 -78 -62 -110 -128 -176 -86 -86
-157 -124 -232 -124 -33 0 -35 2 -30 28 20 100 63 522 71 702 6 125 9 140 38
200 19 38 57 90 93 127 89 90 157 103 221 41z m-2519 -1439 c211 -27 544 -29
732 -5 69 9 166 19 215 22 82 5 94 4 135 -18 33 -18 51 -37 70 -73 22 -44 25
-61 24 -150 0 -81 -6 -115 -28 -180 -49 -146 -155 -273 -278 -334 -112 -56
-160 -38 -183 71 -28 135 -54 156 -170 139 -98 -14 -190 -14 -287 1 -58 8 -84
9 -102 0 -31 -14 -60 -69 -76 -144 -20 -102 -71 -119 -184 -64 -115 57 -236
202 -276 334 -45 144 -36 286 22 356 60 73 114 79 386 45z m-497 -1282 c107
-77 310 -182 417 -216 132 -41 253 -62 397 -68 408 -16 766 126 1098 437 l87
82 0 -204 c0 -224 15 -360 54 -512 32 -120 35 -239 9 -294 -10 -21 -51 -71
-93 -113 -168 -170 -412 -291 -719 -357 -118 -25 -142 -26 -381 -26 -239 0
-263 1 -381 27 -144 30 -276 72 -387 123 -161 73 -358 227 -427 333 -26 39
-29 51 -29 130 0 60 8 116 27 186 40 154 46 211 48 472 l2 242 92 -87 c50 -48
134 -118 186 -155z"/>
<path d="M4232 9460 c-246 -35 -472 -167 -472 -276 0 -37 27 -64 62 -64 14 0
63 20 109 44 174 93 394 127 586 93 97 -17 127 -13 153 21 38 47 19 106 -43
139 -80 41 -265 61 -395 43z"/>
<path d="M5755 9454 c-102 -25 -154 -46 -179 -73 -36 -38 -39 -81 -7 -115 30
-32 68 -36 160 -19 50 10 118 13 201 11 154 -5 256 -31 367 -94 92 -53 138
-56 162 -13 22 39 6 78 -55 137 -60 58 -176 120 -279 148 -59 16 -326 29 -370
18z"/>
<path d="M4240 8972 c-122 -61 -144 -314 -34 -401 81 -64 184 -36 237 62 18
34 22 58 22 132 0 78 -3 96 -25 135 -47 83 -124 111 -200 72z"/>
<path d="M5870 8979 c-36 -15 -69 -48 -93 -94 -17 -32 -21 -58 -21 -125 0 -67
4 -93 21 -125 41 -78 99 -110 172 -94 47 10 82 38 111 90 22 38 25 56 25 134
0 78 -3 96 -25 134 -14 24 -37 53 -51 64 -31 23 -103 31 -139 16z"/>
<path d="M5220 8903 c-20 -25 -22 -36 -16 -103 9 -114 48 -259 117 -435 89
-228 91 -306 13 -375 -75 -65 -245 -78 -401 -30 -83 26 -117 22 -137 -18 -19
-38 -6 -65 46 -95 237 -138 562 -78 674 125 26 48 29 62 28 143 0 79 -5 102
-38 190 -87 231 -127 360 -146 472 -15 93 -24 122 -41 136 -32 26 -74 22 -99
-10z"/>
<path d="M4476 7428 c-27 -39 -20 -74 26 -124 132 -143 523 -210 872 -149 164
29 283 81 349 154 85 94 12 191 -81 110 -149 -131 -548 -177 -849 -98 -93 24
-124 40 -185 90 -56 47 -107 53 -132 17z"/>
</g>
</svg>
