<?xml version="1.0" standalone="no"?>
<!DOCTYPE svg PUBLIC "-//W3C//DTD SVG 20010904//EN"
 "http://www.w3.org/TR/2001/REC-SVG-20010904/DTD/svg10.dtd">
<svg version="1.0" xmlns="http://www.w3.org/2000/svg"
 width="1024.000000pt" height="1536.000000pt" viewBox="0 0 1024.000000 1536.000000"
 preserveAspectRatio="xMidYMid meet">

<g transform="translate(0.000000,1536.000000) scale(0.100000,-0.100000)"
fill="#000000" stroke="none">
<path d="M4920 12054 c-14 -2 -65 -9 -115 -15 -312 -37 -685 -174 -944 -346
-291 -194 -481 -497 -575 -916 -51 -225 -61 -329 -59 -632 0 -154 6 -361 12
-460 l10 -180 53 -55 c80 -83 87 -112 98 -401 45 -1167 230 -1622 825 -2017
185 -124 263 -166 395 -215 172 -64 277 -81 505 -81 170 0 214 3 291 22 208
49 363 118 544 240 399 270 578 491 705 875 94 285 141 614 165 1155 7 155 16
256 26 291 19 66 66 137 105 160 20 11 29 24 29 41 0 39 19 342 31 490 15 193
-1 410 -47 655 -90 473 -263 787 -548 1000 -68 50 -276 163 -386 209 -197 83
-457 149 -695 176 -84 9 -369 12 -425 4z m450 -1325 c329 -40 655 -162 936
-348 174 -114 344 -255 344 -284 0 -7 7 -113 16 -237 19 -266 22 -759 5 -910
-46 -413 -133 -630 -329 -826 -41 -42 -107 -98 -146 -126 -70 -49 -145 -92
-151 -86 -1 2 -19 35 -39 74 -89 170 -261 300 -468 353 -208 53 -668 53 -858
1 -127 -36 -223 -93 -326 -195 -66 -66 -100 -110 -128 -162 -20 -40 -40 -73
-45 -73 -15 0 -159 94 -222 146 -250 204 -356 440 -399 889 -13 138 -13 585 0
770 5 77 13 199 16 270 l7 130 41 39 c327 307 787 527 1203 575 103 12 447 12
543 0z m-250 -2714 c135 0 304 4 376 9 l130 9 37 -36 c46 -47 67 -116 67 -223
0 -59 -6 -99 -20 -136 -52 -140 -200 -253 -289 -222 -20 7 -31 23 -46 67 -34
95 -26 92 -256 93 -229 2 -235 0 -263 -83 -30 -89 -69 -103 -161 -59 -65 31
-127 96 -162 171 -25 54 -28 70 -28 170 0 97 3 116 25 160 14 28 40 60 60 74
34 23 38 23 160 15 69 -5 235 -9 370 -9z"/>
<path d="M4215 9890 c-95 -17 -195 -61 -241 -105 -38 -36 -44 -47 -44 -83 0
-32 6 -45 26 -61 15 -12 32 -21 39 -21 7 0 50 18 96 39 138 64 198 70 495 45
64 -5 74 -4 93 15 28 28 28 82 -1 115 -36 39 -115 57 -273 61 -77 2 -162 0
-190 -5z"/>
<path d="M5695 9889 c-85 -13 -122 -27 -145 -56 -23 -29 -25 -60 -8 -98 14
-31 42 -39 105 -31 235 28 375 16 502 -44 88 -42 125 -40 150 8 29 55 -42 143
-148 183 -122 45 -301 60 -456 38z"/>
<path d="M4291 9384 c-20 -16 -36 -44 -46 -77 -29 -98 -15 -186 40 -245 28
-31 40 -37 74 -37 49 0 89 28 114 78 44 88 27 230 -34 281 -42 36 -106 36
-148 0z"/>
<path d="M5787 9371 c-42 -46 -51 -83 -45 -185 3 -65 7 -79 34 -113 57 -71
140 -65 193 13 36 53 42 171 11 241 -27 63 -55 83 -113 83 -39 0 -49 -5 -80
-39z"/>
<path d="M5022 9243 c-7 -15 -32 -109 -57 -208 -25 -99 -57 -216 -71 -260 -14
-44 -28 -114 -31 -155 -9 -130 26 -176 155 -200 74 -15 223 -8 265 11 28 13
45 49 32 69 -5 7 -37 9 -104 4 -112 -8 -194 6 -228 38 -33 31 -30 86 16 268
61 245 93 395 89 426 -2 23 -9 30 -29 32 -21 2 -29 -3 -37 -25z m52 1 c7 -19
-11 -108 -75 -374 -58 -238 -63 -287 -34 -326 34 -44 84 -56 217 -51 65 2 119
2 122 0 13 -14 -11 -44 -43 -54 -58 -17 -278 -8 -318 14 -81 43 -89 137 -31
337 20 69 55 197 78 284 38 150 52 186 70 186 4 0 11 -7 14 -16z"/>
<path d="M5051 9184 c0 -11 3 -14 6 -6 3 7 2 16 -1 19 -3 4 -6 -2 -5 -13z"/>
<path d="M4696 7954 c-20 -19 -20 -18 0 -55 38 -74 203 -137 379 -146 137 -7
248 12 348 61 93 44 129 77 125 113 -6 51 -29 51 -125 1 -48 -25 -108 -50
-133 -56 -175 -41 -386 -12 -519 72 -48 30 -54 31 -75 10z m844 -26 c0 -42
-116 -112 -240 -145 -94 -24 -281 -21 -383 6 -128 34 -217 92 -217 142 0 12 7
19 19 19 28 0 112 -50 105 -62 -4 -7 -2 -8 4 -4 6 4 40 -3 74 -14 82 -27 247
-37 347 -20 49 8 104 28 169 60 98 49 122 53 122 18z"/>
<path d="M4842 7850 c-7 -12 -8 -20 -2 -20 5 0 10 5 10 10 0 6 5 9 11 8 6 -2
14 3 16 10 8 20 -21 14 -35 -8z"/>
<path d="M5310 7850 c-23 -7 -23 -8 -3 -9 12 -1 25 4 28 9 3 6 5 10 3 9 -2 -1
-14 -5 -28 -9z"/>
<path d="M3988 6961 c-20 -4 -48 -15 -62 -24 -32 -22 -142 -163 -258 -333 -49
-73 -95 -135 -101 -137 -101 -40 -681 -282 -797 -332 -466 -201 -727 -366
-935 -588 -127 -136 -273 -361 -334 -514 -12 -31 -11 -34 35 -95 270 -356 700
-755 1104 -1025 650 -434 1416 -687 2250 -744 413 -28 961 30 1394 147 641
173 1210 472 1756 922 205 169 587 568 699 729 l22 33 -71 137 c-213 415 -495
663 -1045 919 -60 29 -306 134 -545 234 -239 100 -441 187 -449 193 -7 7 -41
52 -74 102 -159 237 -275 367 -341 379 -21 4 -40 6 -42 4 -2 -2 -6 -71 -9
-153 -4 -83 -13 -190 -21 -239 -30 -186 -129 -367 -331 -607 -63 -76 -579
-616 -677 -708 l-36 -35 -27 20 c-49 37 -629 641 -706 736 -146 181 -242 343
-294 493 -23 67 -31 133 -49 408 -3 48 -9 86 -12 86 -4 -1 -23 -5 -44 -8z
m2854 -2349 c64 -31 78 -44 193 -178 27 -32 37 -36 105 -45 90 -13 133 -31
149 -65 7 -15 11 -85 11 -178 0 -140 -2 -156 -21 -180 -18 -23 -27 -26 -85
-26 -63 0 -64 0 -64 28 -1 36 -31 102 -61 129 -29 26 -90 53 -121 53 -87 0
-176 -71 -199 -158 l-13 -52 -297 0 c-164 0 -304 -2 -312 -6 -10 -4 -16 6 -20
36 -8 58 -54 129 -99 153 -64 32 -110 33 -172 3 -61 -30 -93 -71 -111 -145
l-12 -44 -69 2 c-96 3 -104 13 -104 115 0 94 25 159 81 215 48 48 101 68 245
96 69 13 133 30 141 36 8 7 30 36 49 65 60 90 142 151 231 174 21 5 139 8 263
7 l226 -2 66 -33z m-866 -571 c62 -38 69 -127 14 -183 -51 -51 -140 -35 -175
32 -19 37 -19 64 1 106 29 61 100 81 160 45z m1014 4 c54 -28 75 -98 45 -155
-21 -40 -53 -60 -98 -60 -31 0 -46 7 -73 34 -93 93 11 241 126 181z"/>
<path d="M6335 4518 c-26 -4 -64 -18 -86 -32 -35 -24 -129 -131 -129 -148 0
-4 187 -7 415 -7 228 0 415 3 415 8 0 5 -29 40 -65 79 -89 95 -106 101 -327
104 -97 2 -197 0 -223 -4z"/>
</g>
</svg>
