<?xml version="1.0" standalone="no"?>
<!DOCTYPE svg PUBLIC "-//W3C//DTD SVG 20010904//EN"
 "http://www.w3.org/TR/2001/REC-SVG-20010904/DTD/svg10.dtd">
<svg version="1.0" xmlns="http://www.w3.org/2000/svg"
 width="1024.000000pt" height="1536.000000pt" viewBox="0 0 1024.000000 1536.000000"
 preserveAspectRatio="xMidYMid meet">

<g transform="translate(0.000000,1536.000000) scale(0.100000,-0.100000)"
fill="#000000" stroke="none">
<path d="M4790 11739 c-187 -21 -457 -87 -601 -145 -112 -46 -262 -125 -354
-188 -297 -203 -539 -553 -630 -911 -75 -294 -84 -694 -24 -1048 l21 -121 -29
-20 c-138 -97 -202 -261 -190 -486 18 -306 170 -576 383 -677 73 -35 86 -38
166 -38 54 0 88 -4 88 -10 0 -6 7 -62 15 -125 14 -110 36 -366 50 -570 l7 -95
-36 -13 c-46 -17 -127 -90 -164 -149 -122 -195 -184 -302 -208 -358 l-28 -64
-276 -128 c-560 -259 -937 -458 -1096 -578 -140 -105 -265 -239 -372 -396 -34
-51 -132 -233 -156 -291 l-16 -36 60 -91 c56 -85 77 -110 64 -77 -8 22 43 162
102 276 146 282 305 440 634 631 150 87 716 365 1007 495 l51 23 42 -125 c115
-353 308 -666 552 -900 138 -132 187 -149 269 -95 24 17 72 61 107 100 74 83
220 196 350 270 99 56 306 151 332 151 15 0 218 -169 274 -229 l29 -30 -26
-59 c-57 -127 -73 -286 -62 -610 l8 -206 28 -28 c32 -33 67 -36 100 -9 l24 19
1 314 c0 327 5 381 46 463 46 91 347 435 382 435 35 0 164 -39 214 -64 78 -40
152 -102 227 -189 57 -66 77 -83 102 -85 90 -9 138 94 164 349 12 118 7 325
-12 453 -5 38 -7 71 -5 73 9 9 402 -142 723 -278 357 -151 547 -251 711 -373
114 -85 154 -128 229 -242 138 -213 324 -637 399 -912 5 -15 124 123 124 142
0 7 -34 98 -75 202 -93 232 -233 517 -317 644 -103 156 -263 304 -449 414
-242 144 -697 342 -1212 526 l-188 67 -49 99 c-31 63 -69 121 -104 161 l-56
62 36 27 c48 37 155 162 216 254 158 238 282 620 318 980 14 138 14 913 0
1175 -5 99 -10 203 -10 231 l0 51 98 7 c178 12 301 57 392 142 58 55 88 115
97 193 5 52 2 67 -24 123 -57 118 -158 207 -328 289 -85 41 -237 92 -336 113
-21 5 -28 13 -34 43 -9 48 -79 224 -112 282 -236 412 -684 698 -1200 766 -122
16 -340 18 -463 4z m97 -165 c-3 -3 -12 -4 -19 -1 -8 3 -5 6 6 6 11 1 17 -2
13 -5z m-90 -10 c-3 -3 -12 -4 -19 -1 -8 3 -5 6 6 6 11 1 17 -2 13 -5z m-240
-40 c-3 -3 -12 -4 -19 -1 -8 3 -5 6 6 6 11 1 17 -2 13 -5z m-287 -84 c-8 -5
-19 -10 -25 -10 -5 0 -3 5 5 10 8 5 20 10 25 10 6 0 3 -5 -5 -10z m-270 -125
c0 -2 -10 -9 -22 -15 -22 -11 -22 -10 -4 4 21 17 26 19 26 11z m2031 -92 c13
-16 12 -17 -3 -4 -10 7 -18 15 -18 17 0 8 8 3 21 -13z m150 -150 c13 -16 12
-17 -3 -4 -17 13 -22 21 -14 21 2 0 10 -8 17 -17z m-2414 -135 c-3 -8 -6 -5
-6 6 -1 11 2 17 5 13 3 -3 4 -12 1 -19z m2513 2 c6 -11 8 -20 6 -20 -3 0 -10
9 -16 20 -6 11 -8 20 -6 20 3 0 10 -9 16 -20z m120 -240 c0 -5 -2 -10 -4 -10
-3 0 -8 5 -11 10 -3 6 -1 10 4 10 6 0 11 -4 11 -10z m-1093 -16 c-3 -3 -12 -4
-19 -1 -8 3 -5 6 6 6 11 1 17 -2 13 -5z m780 -110 c-3 -3 -12 -4 -19 -1 -8 3
-5 6 6 6 11 1 17 -2 13 -5z m66 -11 c-7 -2 -19 -2 -25 0 -7 3 -2 5 12 5 14 0
19 -2 13 -5z m-46 -9 c-3 -3 -12 -4 -19 -1 -8 3 -5 6 6 6 11 1 17 -2 13 -5z
m-240 -80 c-3 -3 -12 -4 -19 -1 -8 3 -5 6 6 6 11 1 17 -2 13 -5z m-67 -24 c-8
-5 -19 -10 -25 -10 -5 0 -3 5 5 10 8 5 20 10 25 10 6 0 3 -5 -5 -10z m-2043
-122 c-3 -8 -6 -5 -6 6 -1 11 2 17 5 13 3 -3 4 -12 1 -19z m2408 -29 c139 -40
271 -134 332 -237 24 -40 26 -57 39 -275 27 -462 36 -824 31 -1146 -7 -389
-13 -435 -85 -576 -76 -152 -76 -151 -96 -69 -22 87 -69 176 -115 216 -19 17
-62 44 -96 59 -64 30 -224 64 -257 56 -13 -4 -5 7 20 29 58 49 84 109 83 191
0 71 -10 95 -129 318 -61 116 -89 203 -109 340 -17 122 -32 148 -82 148 -17 0
-40 -8 -52 -19 -20 -18 -21 -26 -16 -134 8 -175 48 -293 173 -512 61 -106 69
-148 40 -193 -30 -46 -76 -59 -212 -56 -142 2 -165 -8 -167 -71 -1 -34 -3 -36
-26 -32 -53 11 -364 -15 -441 -37 -167 -46 -278 -127 -339 -246 -35 -70 -52
-79 -113 -63 -140 38 -309 179 -399 335 -52 89 -124 263 -165 400 -33 107 -35
180 -10 365 24 180 46 430 46 538 0 50 3 92 8 92 4 0 31 -7 61 -15 107 -28
237 -38 345 -25 279 32 558 143 971 385 339 199 510 269 630 259 33 -3 92 -14
130 -25z m-785 -63 c0 -2 -7 -7 -16 -10 -8 -3 -12 -2 -9 4 6 10 25 14 25 6z
m-1220 -221 c0 -2 -10 -9 -22 -15 -22 -11 -22 -10 -4 4 21 17 26 19 26 11z
m750 -29 c0 -2 -7 -7 -16 -10 -8 -3 -12 -2 -9 4 6 10 25 14 25 6z m-894 -83
c-1 -1 -12 0 -25 4 -15 4 -19 8 -10 13 10 7 42 -10 35 -17z m-590 -732 c91
-41 177 -148 230 -282 34 -86 72 -123 121 -117 l33 4 0 -116 c0 -226 36 -483
91 -658 65 -203 206 -475 322 -618 248 -308 670 -514 1130 -553 170 -15 382 8
487 53 32 14 -9 -331 -56 -474 -36 -108 -58 -140 -199 -290 -70 -74 -161 -174
-202 -222 l-76 -87 -126 120 c-160 151 -219 196 -356 266 -284 145 -451 252
-665 424 -105 84 -231 213 -279 285 -30 45 -31 52 -31 150 0 262 -39 774 -80
1063 -16 112 -23 139 -41 154 -26 21 -43 21 -103 1 -140 -48 -311 57 -405 248
-60 123 -76 191 -75 338 0 107 3 134 23 183 12 31 33 70 47 86 50 60 133 77
210 42z m1685 -1265 c134 -62 267 -86 473 -87 195 0 322 31 434 108 61 42 66
44 79 27 17 -24 17 -126 -2 -197 -53 -205 -208 -323 -280 -213 -13 20 -13 28
-2 57 32 78 -9 114 -106 93 -78 -17 -167 -17 -256 -2 -65 11 -72 10 -92 -8
-18 -17 -20 -26 -15 -72 6 -52 5 -55 -32 -92 -54 -54 -107 -68 -177 -46 -66
20 -147 90 -180 155 -48 95 -58 258 -22 344 l17 39 43 -36 c24 -20 77 -51 118
-70z m-1427 -888 c11 -140 46 -202 208 -367 184 -186 540 -442 795 -571 l53
-27 -71 -28 c-155 -63 -384 -220 -535 -367 l-91 -89 -62 51 c-224 186 -498
652 -566 962 l-17 78 29 62 c16 35 52 99 80 144 28 44 65 108 82 143 31 61 63
101 80 101 4 0 11 -42 15 -92z m2384 -115 c52 -60 125 -199 151 -288 33 -111
51 -258 51 -423 0 -128 -13 -288 -25 -300 -2 -2 -23 18 -46 43 -80 87 -210
167 -322 200 l-57 17 20 29 c33 46 87 169 110 250 32 115 50 257 50 394 0 145
6 152 68 78z"/>
<path d="M6080 9670 c-99 -11 -197 -47 -223 -82 -26 -35 -14 -86 25 -107 23
-14 34 -13 105 4 114 28 271 26 341 -3 67 -28 77 -28 107 3 36 35 33 79 -8
120 -56 56 -194 82 -347 65z"/>
<path d="M4750 9641 c-182 -40 -275 -96 -268 -162 2 -21 13 -39 30 -52 l27
-20 78 27 c44 14 110 33 148 41 80 17 268 19 369 5 58 -9 73 -8 93 5 66 44 49
120 -34 150 -76 27 -332 31 -443 6z"/>
<path d="M6095 9250 c-93 -38 -113 -206 -35 -293 23 -25 36 -32 68 -32 72 0
112 59 112 165 0 122 -65 194 -145 160z"/>
<path d="M4881 9227 c-38 -19 -62 -77 -63 -149 0 -98 26 -148 88 -168 71 -24
132 36 141 139 10 107 -37 191 -106 191 -20 0 -47 -6 -60 -13z"/>
<path d="M3276 9031 c-36 -40 -24 -75 52 -149 76 -74 104 -130 117 -237 6 -41
15 -65 31 -82 32 -32 77 -30 104 5 20 24 22 35 17 102 -6 91 -35 170 -90 252
-57 84 -104 120 -164 125 -40 4 -51 1 -67 -16z"/>
<path d="M3640 7073 c-43 -73 -150 -261 -183 -322 -47 -87 -48 -112 -13 -231
67 -230 219 -516 382 -720 52 -66 196 -210 209 -210 4 0 46 37 94 82 152 144
343 276 506 349 l72 33 -106 61 c-285 164 -516 331 -684 494 -173 168 -231
261 -246 391 -10 90 -14 101 -31 73z"/>
<path d="M6016 6797 c-11 -237 -59 -436 -136 -574 -17 -30 -29 -57 -26 -60 3
-3 40 -20 83 -37 89 -36 164 -84 243 -156 53 -48 55 -49 63 -28 16 41 20 327
8 438 -20 171 -46 265 -103 375 -33 64 -102 170 -116 179 -5 3 -12 -59 -16
-137z"/>
<path d="M2915 6376 c-554 -264 -696 -339 -890 -470 -139 -94 -244 -195 -334
-321 -96 -137 -204 -364 -216 -454 -4 -37 -1 -43 53 -98 31 -32 48 -52 37 -44
-11 7 -7 2 8 -13 15 -14 25 -26 20 -26 -4 0 8 -14 27 -31 19 -17 28 -27 20
-24 -8 4 0 -7 18 -24 17 -17 32 -35 32 -40 0 -5 20 -25 45 -45 24 -21 44 -40
42 -44 -1 -4 35 -44 80 -89 45 -44 79 -84 76 -87 -4 -3 0 -6 8 -6 7 0 47 -35
89 -79 41 -43 85 -81 98 -85 12 -4 20 -11 17 -15 -7 -12 30 -43 40 -34 4 5 5
3 2 -3 -4 -7 3 -19 16 -27 12 -8 36 -27 52 -42 47 -41 151 -115 164 -115 6 0
10 -4 9 -8 -2 -5 13 -22 32 -38 19 -16 31 -22 26 -14 -4 8 0 6 9 -5 8 -11 21
-20 28 -20 7 0 30 -17 51 -37 22 -21 43 -39 48 -39 4 -1 13 -2 18 -3 6 0 15
-8 21 -16 27 -40 -36 522 -82 729 -16 73 -52 200 -79 282 -55 165 -59 188 -32
212 50 45 106 1 172 -138 49 -101 105 -274 134 -415 36 -180 73 -509 77 -697
2 -82 6 -104 18 -109 9 -4 20 -6 24 -5 10 2 67 -28 67 -35 0 -3 -5 -2 -12 2
-7 4 -8 3 -4 -4 4 -6 14 -8 23 -5 11 4 14 3 9 -5 -7 -12 4 -16 37 -13 10 2 17
-5 18 -16 0 -10 3 -13 6 -6 3 10 10 10 24 2 11 -5 17 -14 14 -19 -4 -6 1 -7
11 -3 12 4 15 3 10 -5 -5 -8 -1 -10 10 -5 12 4 15 3 10 -5 -4 -7 -2 -10 7 -6
8 3 20 -2 27 -11 7 -8 19 -15 27 -15 8 0 11 -4 8 -10 -6 -9 -2 -12 28 -14 6
-1 15 -5 18 -10 4 -5 17 -10 30 -11 39 -4 40 -5 35 -14 -3 -5 1 -12 10 -15 24
-9 31 -7 14 4 -10 7 -11 10 -2 10 7 0 15 -6 18 -14 3 -9 12 -12 21 -9 12 5 14
3 8 -6 -5 -10 -2 -11 14 -6 11 3 29 1 38 -5 15 -9 14 -10 -7 -6 -16 4 -10 -2
15 -14 22 -11 46 -17 53 -15 8 3 10 0 6 -7 -5 -7 0 -9 14 -6 12 4 20 2 17 -2
-3 -4 15 -15 40 -23 25 -9 45 -12 45 -7 0 4 9 6 21 3 16 -4 17 -8 7 -14 -8 -6
-9 -9 -1 -9 6 0 20 -3 30 -6 15 -5 16 -4 3 6 -13 10 -12 11 3 6 10 -3 21 -6
23 -6 3 0 2 -5 -2 -11 -4 -8 0 -9 15 -4 27 8 96 -15 78 -28 -7 -5 -1 -6 16 -2
19 4 26 2 22 -5 -3 -5 -2 -10 4 -10 5 0 18 -3 28 -6 15 -5 15 -4 3 5 -13 9
-13 11 0 11 17 0 50 -19 35 -21 -13 -1 26 -17 43 -18 7 -1 10 4 7 9 -3 5 1 10
10 10 11 0 15 -5 11 -16 -5 -12 -1 -14 15 -9 13 5 19 3 15 -3 -3 -5 10 -13 30
-16 19 -4 43 -10 51 -13 12 -5 14 -3 8 7 -6 10 -4 12 9 7 10 -4 22 -7 27 -7 6
0 7 -5 3 -11 -4 -8 4 -9 27 -4 25 4 30 3 19 -4 -12 -9 -9 -11 15 -13 17 -1 44
-1 60 0 24 2 27 0 15 -9 -11 -8 -2 -9 35 -5 34 4 44 3 30 -3 -13 -7 -15 -10
-5 -10 8 0 21 3 29 8 7 5 23 6 35 3 20 -6 20 -6 -4 -13 l-25 -7 28 -1 c15 -1
27 3 27 8 0 4 12 6 28 3 l27 -6 -25 -7 c-15 -5 -3 -6 30 -3 35 3 50 2 42 -4
-9 -6 5 -8 40 -6 42 3 48 2 28 -6 -18 -7 -8 -8 40 -5 44 3 59 2 45 -4 -17 -8
-14 -10 15 -10 21 0 30 2 22 7 -7 5 16 6 50 4 35 -3 65 -8 66 -13 2 -5 8 -9
13 -9 6 0 8 3 6 8 -3 4 50 6 116 4 305 -6 525 -6 509 -1 -30 10 32 16 171 16
77 0 132 4 134 10 2 6 15 8 28 5 14 -2 32 -1 42 2 15 6 15 8 3 16 -11 7 -5 10
20 9 29 0 31 -2 15 -9 -18 -8 -17 -9 8 -9 16 -1 26 3 23 8 -7 10 52 26 61 17
4 -3 -4 -6 -17 -6 -13 0 -21 -2 -18 -5 3 -3 24 -3 46 1 27 4 39 11 36 19 -4 8
7 14 30 17 19 2 32 0 30 -4 -3 -4 -15 -8 -26 -8 -12 0 -19 -2 -16 -5 3 -3 24
-3 47 1 29 5 38 10 29 15 -7 5 4 6 27 3 32 -5 37 -3 25 6 -12 9 -9 11 15 7 17
-3 48 1 70 9 l40 13 -40 -5 c-38 -4 -38 -3 -10 6 17 6 44 8 60 5 17 -3 24 -2
18 1 -7 3 -13 10 -13 15 0 6 8 6 19 -1 26 -13 44 -13 35 2 -4 7 -3 8 4 4 14
-9 103 14 97 24 -3 5 4 11 15 15 11 3 20 11 20 16 0 5 5 9 11 9 6 0 8 -7 5
-16 -5 -12 -2 -15 10 -10 8 3 21 6 27 6 7 0 3 8 -8 16 -19 16 -19 16 5 9 28
-8 27 -8 55 -6 17 1 18 3 5 12 -12 9 -11 10 8 6 25 -6 104 22 97 33 -3 5 5 6
17 2 15 -4 19 -2 13 7 -6 10 -2 11 15 6 16 -5 20 -4 15 5 -4 7 -1 11 6 9 33
-4 48 1 43 16 -4 10 1 16 17 17 46 3 54 4 83 12 15 4 26 9 24 12 -3 2 -18 0
-34 -6 -16 -6 -25 -8 -21 -3 12 12 98 42 91 32 -3 -5 6 -4 20 3 14 6 26 15 26
20 0 4 3 7 8 7 22 -4 31 3 25 19 -6 15 -4 15 9 4 14 -11 22 -11 48 3 17 9 28
20 25 24 -5 10 25 25 33 16 3 -3 -1 -5 -8 -5 -7 0 -11 -3 -8 -6 4 -3 20 2 37
11 25 13 30 21 27 41 -4 23 -3 24 12 13 27 -21 28 -23 7 -15 -15 5 -17 4 -8
-5 13 -13 37 -3 27 12 -6 10 35 49 51 48 6 0 4 -3 -3 -6 -6 -2 -9 -10 -6 -15
5 -7 2 -8 -6 -3 -8 5 -11 4 -6 -3 9 -15 34 -4 47 20 6 11 17 17 25 14 8 -3 14
1 14 8 0 8 18 21 40 30 22 9 40 21 40 28 0 9 3 8 10 -2 8 -13 10 -12 10 3 0 9
5 17 11 17 5 0 7 -6 3 -12 -4 -8 -3 -10 2 -5 5 5 10 13 10 18 3 22 5 23 14 9
8 -13 11 -11 16 7 4 15 13 22 28 20 12 -1 20 3 18 11 -1 7 10 18 25 25 16 6
34 17 41 24 8 7 18 11 23 8 5 -4 9 -2 9 3 0 5 10 13 23 17 13 4 17 8 10 12 -7
2 -13 9 -13 14 0 6 4 8 9 4 5 -3 12 -1 16 4 9 16 -16 751 -41 1197 l-7 112 27
17 c56 37 113 -23 135 -142 34 -178 52 -414 60 -781 l6 -293 58 56 c32 30 62
53 66 50 5 -2 23 14 40 35 18 22 36 38 40 35 8 -4 73 60 67 67 -2 1 10 14 27
28 17 14 27 18 22 10 -5 -9 0 -8 13 4 12 11 22 24 22 30 0 13 42 52 52 48 4
-1 21 18 38 43 17 25 36 44 42 42 7 -1 18 10 25 25 8 15 24 36 37 45 l23 18
-17 60 c-56 194 -155 438 -259 640 -147 285 -224 379 -424 513 -111 74 -382
215 -532 277 -49 21 -137 58 -195 82 -178 77 -601 236 -608 229 -2 -3 1 -50 7
-106 22 -201 8 -481 -30 -615 -27 -96 -73 -145 -134 -145 -36 0 -44 6 -90 57
-93 106 -163 168 -233 206 -83 44 -215 81 -242 67 -38 -21 -326 -356 -360
-421 -36 -67 -55 -335 -41 -574 10 -178 3 -215 -44 -237 -36 -16 -93 0 -119
35 -20 27 -21 39 -21 345 0 300 1 321 23 395 12 43 31 96 42 117 l19 38 -57
55 c-31 30 -94 87 -140 127 -95 81 -76 80 -229 13 -219 -96 -366 -195 -539
-365 -120 -117 -163 -143 -217 -127 -70 20 -184 119 -309 269 -188 224 -349
520 -428 787 -14 46 -29 83 -35 83 -5 -1 -154 -70 -330 -154z m2651 -909 c47
-43 57 -108 25 -160 -39 -64 -127 -78 -183 -28 -27 24 -32 36 -36 89 -4 60 -3
63 31 97 30 30 42 35 81 35 38 0 52 -6 82 -33z m1122 -534 c-10 -2 -26 -2 -35
0 -10 3 -2 5 17 5 19 0 27 -2 18 -5z m90 0 c-10 -2 -28 -2 -40 0 -13 2 -5 4
17 4 22 1 32 -1 23 -4z m-191 -9 c-3 -3 -12 -4 -19 -1 -8 3 -5 6 6 6 11 1 17
-2 13 -5z m326 -1 c-7 -2 -19 -2 -25 0 -7 3 -2 5 12 5 14 0 19 -2 13 -5z
m-366 -9 c-3 -3 -12 -4 -19 -1 -8 3 -5 6 6 6 11 1 17 -2 13 -5z m410 0 c-3 -3
-12 -4 -19 -1 -8 3 -5 6 6 6 11 1 17 -2 13 -5z m-477 -19 c-14 -8 -29 -14 -35
-14 -5 0 1 6 15 14 14 8 30 14 35 14 6 0 -1 -6 -15 -14z m498 -9 c23 -10 94
-55 156 -100 63 -44 128 -88 144 -98 55 -30 66 -59 66 -177 0 -81 -4 -114 -17
-138 -20 -37 -73 -72 -122 -80 -19 -3 -35 -11 -35 -18 0 -7 -13 -30 -30 -53
-54 -75 -166 -88 -238 -27 -16 14 -35 38 -42 55 l-12 30 -224 2 c-123 0 -245
2 -271 3 -47 1 -49 0 -68 -39 -29 -59 -75 -86 -144 -86 -71 0 -127 31 -158 85
-19 34 -29 41 -65 47 -26 5 -53 18 -71 36 -25 25 -29 38 -32 100 -5 85 7 126
48 169 53 56 92 70 303 103 78 12 106 27 203 104 122 98 151 106 386 103 149
-2 187 -6 223 -21z m47 4 c3 -6 -1 -7 -9 -4 -18 7 -21 14 -7 14 6 0 13 -4 16
-10z m36 -27 c13 -16 12 -17 -3 -4 -17 13 -22 21 -14 21 2 0 10 -8 17 -17z
m150 -110 c13 -16 12 -17 -3 -4 -10 7 -18 15 -18 17 0 8 8 3 21 -13z m-956
-13 c-3 -5 -12 -10 -18 -10 -7 0 -6 4 3 10 19 12 23 12 15 0z m-38 -16 c-3 -3
-12 -4 -19 -1 -8 3 -5 6 6 6 11 1 17 -2 13 -5z m-60 -10 c-3 -3 -12 -4 -19 -1
-8 3 -5 6 6 6 11 1 17 -2 13 -5z m1210 -216 c-2 -18 -4 -4 -4 32 0 36 2 50 4
33 2 -18 2 -48 0 -65z m-1554 57 c-3 -9 -8 -14 -10 -11 -3 3 -2 9 2 15 9 16
15 13 8 -4z m-16 -137 c-2 -13 -4 -5 -4 17 -1 22 1 32 4 23 2 -10 2 -28 0 -40z
m1570 10 c-3 -7 -5 -2 -5 12 0 14 2 19 5 13 2 -7 2 -19 0 -25z m-111 -143
c-11 -8 -27 -15 -35 -15 -9 1 -2 7 14 15 39 18 44 18 21 0z m-536 -22 c-211
-7 -408 -7 -403 0 2 4 113 6 246 5 133 -1 204 -3 157 -5z m450 -43 c-6 -11
-13 -20 -16 -20 -2 0 0 9 6 20 6 11 13 20 16 20 2 0 0 -9 -6 -20z m-963 -76
c-3 -3 -12 -4 -19 -1 -8 3 -5 6 6 6 11 1 17 -2 13 -5z m-49 -11 c-10 -2 -28
-2 -40 0 -13 2 -5 4 17 4 22 1 32 -1 23 -4z m870 0 c-10 -2 -26 -2 -35 0 -10
3 -2 5 17 5 19 0 27 -2 18 -5z m367 -233 c3 -5 1 -10 -4 -10 -6 0 -11 5 -11
10 0 6 2 10 4 10 3 0 8 -4 11 -10z m-285 -185 c0 -2 -9 -9 -19 -15 -14 -7 -22
-7 -27 2 -4 7 -3 8 4 4 7 -4 12 -2 12 3 0 6 7 11 15 11 8 0 15 -2 15 -5z
m-697 -282 c-7 -2 -19 -2 -25 0 -7 3 -2 5 12 5 14 0 19 -2 13 -5z"/>
<path d="M5414 5456 c-29 -29 -34 -41 -34 -81 0 -40 5 -52 34 -81 56 -56 135
-44 171 26 41 80 -15 170 -106 170 -22 0 -41 -10 -65 -34z"/>
<path d="M6619 4800 c-70 -9 -150 -46 -211 -98 -44 -37 -46 -40 -25 -46 54
-14 533 1 672 22 l50 8 -50 37 c-62 46 -118 65 -226 77 -93 11 -127 11 -210 0z
m179 -17 c-32 -2 -86 -2 -120 0 -35 2 -9 3 57 3 66 0 94 -1 63 -3z m132 -13
c20 -6 21 -8 5 -8 -11 0 -33 4 -50 8 -27 7 -27 8 -5 8 14 0 36 -4 50 -8z
m-410 -15 c0 -2 -10 -9 -22 -15 -22 -11 -22 -10 -4 4 21 17 26 19 26 11z m-60
-38 c0 -2 -15 -13 -32 -26 l-33 -22 28 25 c26 24 37 31 37 23z m503 -34 c-13
-2 -35 -2 -50 0 -16 2 -5 4 22 4 28 0 40 -2 28 -4z m-155 -10 c-21 -2 -57 -2
-80 0 -24 2 -7 4 37 4 44 0 63 -2 43 -4z"/>
<path d="M6960 4579 c-63 -5 -293 -8 -510 -6 -384 2 -396 1 -440 -19 -56 -26
-85 -59 -94 -103 -9 -51 26 -86 38 -37 9 36 55 87 93 102 42 18 117 18 152 0
36 -19 89 -79 97 -111 l6 -25 274 0 c273 0 274 0 274 21 0 33 79 106 123 114
76 15 148 -20 183 -86 16 -32 44 -38 68 -13 19 18 22 124 6 155 -12 22 -58 23
-270 8z m233 -6 c-7 -2 -19 -2 -25 0 -7 3 -2 5 12 5 14 0 19 -2 13 -5z m-105
-10 c-10 -2 -26 -2 -35 0 -10 3 -2 5 17 5 19 0 27 -2 18 -5z m-955 -10 c-7 -2
-19 -2 -25 0 -7 3 -2 5 12 5 14 0 19 -2 13 -5z m215 0 c-21 -2 -55 -2 -75 0
-21 2 -4 4 37 4 41 0 58 -2 38 -4z m510 0 c-15 -2 -42 -2 -60 0 -18 2 -6 4 27
4 33 0 48 -2 33 -4z m283 -70 c13 -16 12 -17 -3 -4 -10 7 -18 15 -18 17 0 8 8
3 21 -13z m79 -53 c0 -5 -5 -10 -11 -10 -5 0 -7 5 -4 10 3 6 8 10 11 10 2 0 4
-4 4 -10z m-827 -37 c-7 -2 -21 -2 -30 0 -10 3 -4 5 12 5 17 0 24 -2 18 -5z
m85 0 c-10 -2 -26 -2 -35 0 -10 3 -2 5 17 5 19 0 27 -2 18 -5z m75 0 c-7 -2
-21 -2 -30 0 -10 3 -4 5 12 5 17 0 24 -2 18 -5z m195 0 c-32 -2 -86 -2 -120 0
-35 2 -9 3 57 3 66 0 94 -1 63 -3z"/>
<path d="M6079 4425 c-53 -29 -55 -112 -4 -155 25 -20 89 -19 113 3 47 43 34
129 -24 153 -41 17 -52 17 -85 -1z m119 -60 c-3 -3 -9 2 -12 12 -6 14 -5 15 5
6 7 -7 10 -15 7 -18z m-141 -37 c-3 -8 -6 -5 -6 6 -1 11 2 17 5 13 3 -3 4 -12
1 -19z m54 -56 c-7 -2 -18 1 -23 6 -8 8 -4 9 13 5 13 -4 18 -8 10 -11z"/>
<path d="M6962 4413 c-22 -9 -44 -63 -37 -94 7 -32 48 -69 76 -69 76 0 117 93
64 145 -23 24 -69 32 -103 18z"/>
<path d="M7680 5385 c-9 -11 -10 -48 -1 -167 17 -241 32 -630 34 -904 1 -174
5 -250 13 -245 5 3 40 28 77 54 l67 49 0 167 c0 495 -50 982 -107 1038 -25 26
-65 30 -83 8z"/>
<path d="M2476 5194 c-9 -8 -16 -22 -16 -29 0 -8 24 -87 54 -177 91 -274 140
-562 169 -998 2 -36 12 -44 120 -109 l37 -23 0 74 c0 87 -24 356 -45 518 -33
238 -99 478 -173 626 -60 119 -107 157 -146 118z"/>
<path d="M3725 3460 c27 -12 43 -12 25 0 -8 5 -22 9 -30 9 -10 0 -8 -3 5 -9z"/>
<path d="M5538 3263 c12 -2 30 -2 40 0 9 3 -1 5 -23 4 -22 0 -30 -2 -17 -4z"/>
<path d="M4763 3253 c9 -2 23 -2 30 0 6 3 -1 5 -18 5 -16 0 -22 -2 -12 -5z"/>
<path d="M4923 3243 c9 -2 23 -2 30 0 6 3 -1 5 -18 5 -16 0 -22 -2 -12 -5z"/>
<path d="M5053 3243 c9 -2 25 -2 35 0 9 3 1 5 -18 5 -19 0 -27 -2 -17 -5z"/>
<path d="M5128 3243 c6 -2 18 -2 25 0 6 3 1 5 -13 5 -14 0 -19 -2 -12 -5z"/>
<path d="M5243 3243 c15 -2 37 -2 50 0 12 2 0 4 -28 4 -27 0 -38 -2 -22 -4z"/>
</g>
</svg>
