<?xml version="1.0" standalone="no"?>
<!DOCTYPE svg PUBLIC "-//W3C//DTD SVG 20010904//EN"
 "http://www.w3.org/TR/2001/REC-SVG-20010904/DTD/svg10.dtd">
<svg version="1.0" xmlns="http://www.w3.org/2000/svg"
 width="1024.000000pt" height="1536.000000pt" viewBox="0 0 1024.000000 1536.000000"
 preserveAspectRatio="xMidYMid meet">

<g transform="translate(0.000000,1536.000000) scale(0.100000,-0.100000)"
fill="#000000" stroke="none">
<path d="M7905 13639 c-214 -31 -435 -145 -595 -308 -175 -177 -273 -383 -302
-634 -21 -183 18 -400 103 -573 178 -364 543 -594 942 -594 301 0 564 113 771
331 193 203 289 444 289 729 0 286 -97 531 -291 732 -243 252 -574 366 -917
317z m279 -209 c180 -26 329 -103 466 -240 97 -97 144 -165 186 -268 48 -120
58 -179 58 -332 0 -153 -10 -212 -58 -332 -51 -126 -152 -256 -268 -346 -74
-57 -198 -116 -298 -144 -116 -31 -298 -31 -415 1 -249 67 -433 217 -549 448
-105 211 -115 483 -24 702 81 193 252 368 434 444 170 70 307 90 468 67z"/>
<path d="M8188 12713 l-258 -257 -123 122 c-119 118 -125 122 -166 122 -36 0
-49 -6 -77 -34 -28 -28 -34 -41 -34 -77 0 -42 3 -46 167 -210 91 -92 179 -173
194 -180 65 -26 75 -18 402 309 l307 308 0 48 c0 39 -5 53 -29 77 -24 24 -38
29 -77 29 l-48 0 -258 -257z"/>
<path d="M4915 12794 c-695 -70 -1288 -463 -1617 -1074 -100 -184 -177 -424
-215 -661 -14 -86 -18 -170 -18 -339 l1 -225 -70 -45 c-80 -52 -136 -118 -180
-210 -24 -52 -31 -81 -34 -151 -6 -116 34 -526 58 -610 23 -78 84 -173 146
-227 51 -46 160 -105 222 -121 49 -14 49 -9 31 -206 -14 -164 -41 -319 -92
-520 l-42 -170 -6 165 c-4 106 -12 182 -22 213 -47 146 -191 273 -345 306 -36
7 -287 11 -790 11 -801 0 -792 1 -904 -56 -107 -54 -212 -192 -238 -314 -8
-39 -11 -188 -8 -515 l3 -460 37 -75 c46 -95 129 -178 225 -223 l68 -32 500
-5 c494 -5 500 -5 530 -27 17 -12 99 -91 182 -175 l153 -153 -71 -55 c-143
-111 -278 -276 -362 -445 -82 -165 -135 -369 -166 -641 -33 -285 -85 -927 -78
-956 8 -31 41 -66 75 -79 14 -5 1345 -9 3234 -9 3202 0 3211 0 3243 20 62 38
67 67 51 247 -8 87 -24 271 -36 408 -11 138 -25 302 -31 365 -52 565 -279 961
-692 1202 -88 51 -205 104 -561 253 -272 113 -496 218 -496 233 0 4 57 22 126
40 69 17 175 52 236 77 123 49 288 144 318 183 31 38 26 93 -15 166 -77 138
-147 356 -204 632 -34 170 -47 270 -57 460 l-6 132 38 12 c122 39 241 128 304
226 50 80 66 152 95 434 31 300 29 342 -24 456 -36 77 -124 174 -196 215 l-50
28 3 228 c3 172 0 255 -13 338 -63 429 -244 796 -548 1111 -309 322 -692 521
-1147 599 -91 16 -452 28 -545 19z m476 -230 c827 -115 1466 -771 1559 -1599
11 -100 13 -310 4 -367 -6 -35 -9 -38 -40 -38 -26 0 -34 4 -34 18 0 71 -24
301 -39 382 -64 330 -249 662 -502 905 -414 397 -968 564 -1539 466 -458 -79
-881 -358 -1152 -760 -186 -277 -288 -611 -288 -941 l0 -70 -39 0 -39 0 -6
113 c-23 375 112 834 342 1157 82 116 288 325 399 403 248 176 538 293 822
332 137 18 417 18 552 -1z m-9 -443 c678 -116 1193 -666 1268 -1353 5 -54 10
-125 10 -159 l0 -62 -41 7 c-22 4 -79 22 -127 41 -319 129 -633 436 -842 822
-57 106 -85 133 -137 133 -42 0 -67 -22 -147 -131 -223 -302 -446 -495 -777
-668 -255 -133 -503 -216 -780 -260 -165 -27 -218 -29 -229 -11 -25 39 -2 355
35 501 64 250 203 498 382 685 244 252 537 405 878 459 128 21 374 18 507 -4z
m148 -933 c39 -70 193 -268 280 -360 225 -240 513 -425 755 -484 39 -9 73 -20
77 -23 7 -6 -44 -483 -72 -681 -23 -162 -81 -449 -105 -519 -57 -167 -186
-391 -233 -403 -15 -5 -97 -13 -183 -20 l-157 -12 -51 56 c-32 34 -70 64 -103
79 -50 23 -63 24 -263 24 -180 0 -218 -3 -265 -19 -76 -27 -153 -104 -174
-176 -47 -159 19 -320 156 -381 48 -21 71 -24 232 -27 199 -4 277 6 343 44 53
31 110 98 125 147 7 22 17 41 23 44 7 2 40 3 75 1 l62 -3 -102 -90 c-216 -191
-455 -319 -675 -360 -241 -46 -521 24 -771 192 -403 271 -680 646 -769 1040
-39 168 -73 393 -109 703 l-32 285 60 8 c339 42 623 117 882 233 364 164 673
393 889 658 39 47 73 86 76 86 3 0 16 -19 29 -42z m-2156 -860 c3 -24 17 -160
31 -302 14 -143 37 -343 52 -445 35 -252 36 -242 -7 -254 -53 -14 -178 -3
-231 20 -94 42 -161 126 -179 224 -19 108 -52 475 -46 522 6 58 49 139 91 174
59 51 169 92 272 102 7 0 14 -17 17 -41z m3647 11 c87 -27 156 -80 191 -148
36 -68 36 -127 4 -427 -21 -187 -29 -230 -50 -271 -61 -122 -221 -193 -381
-169 -45 7 -47 9 -41 34 22 104 126 927 126 997 0 14 7 16 43 10 23 -3 72 -15
108 -26z m-3448 -1292 c92 -267 273 -536 523 -776 l124 -120 -2 -172 -3 -173
-151 -96 -151 -97 -188 38 c-207 41 -325 79 -456 145 l-88 44 26 67 c138 359
243 848 243 1128 0 82 8 93 70 94 23 1 28 -7 53 -82z m3178 73 l30 0 -7 -47
c-8 -59 -25 -93 -71 -144 -33 -36 -124 -109 -136 -109 -3 0 9 30 27 68 18 37
48 107 66 155 24 64 37 87 47 82 8 -3 28 -5 44 -5z m154 -839 c40 -159 82
-283 126 -377 16 -33 29 -64 29 -67 0 -13 -183 -99 -269 -127 -82 -27 -192
-51 -375 -83 l-79 -14 -159 97 -158 98 -6 174 -5 173 57 45 c51 40 171 166
279 293 37 44 45 48 115 62 92 18 215 77 295 142 l60 49 27 -161 c15 -88 43
-225 63 -304z m-4170 410 c59 -26 97 -63 125 -117 l25 -49 0 -475 0 -475 -23
-37 c-32 -52 -91 -78 -176 -78 -61 0 -70 -3 -97 -29 l-29 -29 0 -131 c0 -72
-3 -131 -8 -131 -4 0 -72 66 -152 146 -80 80 -154 151 -165 157 -14 9 -165 13
-540 17 -483 5 -523 6 -555 24 -49 26 -88 64 -113 111 -21 39 -22 51 -25 469
-3 472 -2 485 58 558 17 20 53 48 82 62 l52 26 750 0 c705 0 753 -2 791 -19z
m2941 -94 c13 -15 24 -37 24 -48 0 -27 -26 -75 -45 -83 -8 -3 -97 -6 -196 -7
l-182 -1 -25 26 c-43 42 -31 114 23 137 11 5 100 7 198 6 l179 -2 24 -28z
m155 -892 c14 -29 44 -64 70 -84 24 -18 45 -39 47 -45 4 -19 -62 -169 -119
-270 -110 -193 -203 -320 -474 -642 -82 -99 -168 -203 -190 -231 -22 -29 -42
-52 -45 -52 -3 0 -45 52 -95 116 -49 64 -150 186 -223 272 -276 323 -404 513
-492 737 -25 61 -28 79 -18 85 7 5 16 9 19 9 3 0 25 19 48 42 56 57 71 111 71
255 0 62 2 113 5 113 3 0 22 -11 43 -24 174 -110 437 -186 642 -186 202 0 439
72 635 194 l40 25 5 -132 c4 -117 8 -138 31 -182z m-2646 -104 c93 -44 291
-114 387 -136 42 -10 74 -23 71 -28 -10 -17 -242 -124 -548 -253 -165 -69
-308 -128 -317 -131 -16 -5 -18 4 -18 95 l0 100 34 6 c147 28 288 181 303 331
3 31 9 54 12 52 3 -1 38 -18 76 -36z m3114 -229 l83 -53 -6 -122 c-20 -370
-29 -519 -41 -680 -7 -99 -15 -181 -17 -182 -2 -2 -87 45 -188 104 -102 59
-243 140 -315 180 -71 40 -134 76 -138 80 -5 5 42 75 104 157 62 81 137 187
168 234 59 91 191 345 191 368 0 15 11 9 159 -86z m-2156 -24 c87 -183 205
-366 356 -551 53 -66 61 -81 50 -92 -8 -7 -99 -62 -204 -122 -104 -61 -242
-142 -305 -181 l-115 -71 -7 27 c-14 57 -57 719 -58 884 l0 77 112 70 c61 39
113 71 114 71 2 0 27 -51 57 -112z m-479 -305 c16 -379 57 -877 74 -910 33
-60 103 -78 173 -43 24 12 163 93 309 180 146 86 312 185 370 218 l105 61 48
-52 c26 -29 97 -112 157 -185 l110 -133 0 -625 0 -624 -965 0 -965 0 0 324 c0
319 0 323 -23 357 -39 58 -115 64 -163 12 l-24 -26 0 -333 0 -334 -426 0 -426
0 6 38 c3 20 8 75 11 122 25 352 64 700 96 869 74 384 273 666 585 828 88 46
235 111 549 243 116 48 248 106 295 128 47 22 88 41 91 41 4 1 9 -70 13 -156z
m2992 123 c111 -54 214 -98 454 -196 373 -151 478 -206 618 -324 221 -185 358
-471 406 -846 11 -89 76 -827 76 -867 0 -2 -191 -3 -425 -3 l-425 0 0 329 0
329 -26 31 c-30 36 -81 49 -125 31 -57 -24 -59 -37 -59 -395 l0 -325 -965 0
-965 0 0 617 0 616 27 36 c43 57 259 315 276 329 15 13 170 -70 641 -347 201
-118 227 -126 286 -96 16 9 37 29 45 45 18 35 48 358 65 695 11 241 20 375 25
375 1 0 34 -15 71 -34z"/>
<path d="M1346 8189 c-56 -44 -70 -110 -36 -166 50 -83 176 -84 224 -3 34 58
12 146 -44 175 -43 22 -112 19 -144 -6z"/>
<path d="M1855 8177 c-84 -84 -29 -217 88 -217 73 0 127 53 127 125 0 78 -51
125 -136 125 -39 0 -51 -5 -79 -33z"/>
<path d="M2402 8196 c-37 -20 -62 -66 -62 -114 0 -34 6 -49 33 -78 28 -31 41
-37 83 -41 59 -5 90 10 121 56 38 56 25 125 -33 170 -31 24 -105 28 -142 7z"/>
<path d="M2287 3850 c-123 -31 -213 -119 -257 -251 -19 -54 -21 -81 -18 -179
3 -99 7 -123 30 -172 37 -80 105 -149 181 -184 55 -26 73 -29 157 -29 81 0
103 4 150 26 90 43 152 119 166 208 6 37 5 40 -20 47 -39 9 -99 -2 -111 -22
-57 -94 -85 -116 -160 -122 -107 -9 -194 51 -230 158 -24 71 -17 208 12 265
55 105 170 152 270 110 48 -20 71 -41 95 -88 l19 -38 62 3 c75 4 80 14 44 91
-50 111 -154 178 -281 183 -39 2 -88 -1 -109 -6z"/>
<path d="M3815 3851 c-58 -16 -84 -30 -124 -67 -85 -76 -93 -215 -19 -300 40
-46 84 -67 204 -101 117 -32 164 -68 164 -124 -1 -43 -17 -65 -63 -84 -81 -33
-175 -2 -215 73 l-23 42 -60 0 c-54 0 -59 -2 -65 -24 -8 -33 11 -89 44 -127
119 -142 397 -143 496 -1 26 37 31 55 34 116 3 59 0 81 -17 113 -39 78 -82
102 -288 162 -82 24 -113 54 -113 108 0 25 8 43 29 64 26 25 37 29 88 29 70 0
116 -24 140 -75 16 -35 18 -35 80 -35 l63 0 0 30 c0 67 -61 144 -143 180 -52
23 -164 34 -212 21z"/>
<path d="M5205 3847 c-114 -38 -207 -123 -245 -225 -31 -79 -38 -216 -16 -300
43 -169 173 -277 345 -289 237 -17 411 157 411 411 0 175 -84 319 -224 382
-72 33 -204 43 -271 21z m216 -158 c107 -54 156 -205 113 -350 -21 -70 -89
-139 -157 -158 -125 -35 -246 34 -287 163 -17 53 -9 191 14 236 63 123 199
170 317 109z"/>
<path d="M2862 3828 c-4 -13 -7 -142 -7 -288 0 -302 6 -335 75 -413 62 -70
116 -91 230 -91 80 0 102 3 140 23 93 48 140 112 159 216 14 76 15 530 1 556
-9 15 -22 19 -70 19 -48 0 -61 -4 -70 -19 -6 -12 -10 -120 -10 -281 0 -241 -1
-264 -20 -300 -25 -48 -68 -72 -131 -72 -61 0 -106 25 -131 74 -17 33 -19 59
-19 285 1 136 -3 262 -7 278 -8 29 -11 30 -70 33 -57 3 -63 1 -70 -20z"/>
<path d="M4294 3836 c-3 -7 -4 -38 -2 -67 l3 -54 100 -3 c64 -2 102 -7 107
-15 4 -7 8 -155 8 -329 l0 -318 70 0 70 0 1 315 c1 173 2 321 3 328 1 8 32 13
106 17 l105 5 0 65 0 65 -283 3 c-233 2 -283 0 -288 -12z"/>
<path d="M5867 3843 c-4 -3 -7 -183 -7 -400 l0 -393 70 0 70 0 0 267 c0 146 3
263 7 259 5 -4 51 -107 103 -229 l96 -222 55 -3 c37 -2 59 2 66 10 6 7 50 108
98 223 47 116 90 214 96 220 5 5 9 -91 9 -258 l0 -267 69 0 c38 0 71 4 73 10
2 5 1 184 -2 397 l-5 388 -87 3 c-75 2 -88 0 -96 -15 -10 -17 -178 -426 -202
-488 l-12 -30 -13 25 c-7 14 -54 124 -105 245 -50 121 -98 230 -106 243 -13
20 -22 22 -93 22 -43 0 -81 -3 -84 -7z"/>
<path d="M6877 3843 c-4 -3 -7 -183 -7 -400 l0 -393 253 2 252 3 0 60 0 60
-180 5 -180 5 0 100 0 100 155 5 155 5 3 54 c2 37 -1 57 -10 62 -7 5 -80 9
-161 9 l-148 0 3 93 3 92 180 5 180 5 3 44 c2 25 1 55 -3 68 l-5 23 -244 0
c-133 0 -246 -3 -249 -7z"/>
<path d="M7552 3837 c-9 -11 -12 -109 -10 -398 l3 -384 70 0 70 0 5 135 5 135
39 3 c71 6 76 1 161 -143 l79 -135 78 0 c56 0 78 4 78 12 0 7 -36 72 -80 144
-44 72 -80 136 -80 142 0 6 8 13 19 17 30 9 92 75 112 119 27 60 25 158 -5
221 -28 61 -56 87 -121 117 -45 20 -68 23 -231 26 -149 3 -182 1 -192 -11z
m358 -142 c69 -35 79 -140 21 -199 -31 -30 -34 -31 -136 -34 l-105 -4 0 119
c0 66 3 123 7 126 13 14 183 7 213 -8z"/>
<path d="M5786 2670 c-71 -13 -168 -64 -211 -111 -20 -23 -51 -71 -69 -108
-30 -63 -31 -71 -31 -196 0 -119 2 -135 26 -186 72 -152 200 -226 379 -217 73
3 98 9 153 36 143 71 215 213 205 408 -10 212 -144 358 -348 377 -30 3 -77 2
-104 -3z m171 -161 c84 -41 133 -134 133 -253 0 -86 -24 -151 -76 -202 -74
-74 -197 -86 -291 -28 -72 45 -107 119 -107 227 1 129 53 221 148 263 48 21
143 17 193 -7z"/>
<path d="M2749 2652 c-116 -43 -172 -146 -147 -267 8 -39 20 -60 57 -95 47
-46 81 -61 234 -101 65 -16 117 -65 117 -108 0 -71 -49 -106 -141 -99 -68 5
-123 41 -145 95 -15 34 -15 34 -71 31 -69 -4 -82 -19 -65 -75 17 -56 74 -118
140 -150 51 -25 68 -28 157 -28 85 0 107 3 145 23 95 50 130 106 130 207 0
138 -59 193 -268 250 -83 22 -107 33 -127 57 -60 72 -7 158 97 158 53 0 102
-28 129 -75 20 -34 22 -35 85 -35 l64 0 0 33 c-1 69 -85 164 -168 187 -56 15
-171 11 -223 -8z"/>
<path d="M3304 2647 c-3 -8 -4 -142 -2 -298 3 -275 4 -286 27 -337 29 -64 95
-125 158 -146 66 -23 180 -21 245 4 58 21 123 81 154 140 17 32 19 62 19 340
l0 305 -70 0 -70 0 -5 -280 c-5 -269 -6 -281 -28 -316 -57 -92 -203 -91 -257
1 -18 32 -20 57 -25 315 l-5 280 -68 3 c-51 2 -69 -1 -73 -11z"/>
<path d="M4096 2644 c-11 -28 -7 -744 4 -765 9 -15 21 -19 63 -19 29 0 57 4
64 8 8 5 13 49 15 137 l3 130 107 1 c119 2 158 12 217 54 57 42 83 98 89 190
5 94 -21 163 -79 214 -64 55 -118 66 -309 66 -144 0 -169 -2 -174 -16z m362
-144 c38 -23 52 -54 52 -117 0 -38 -5 -50 -34 -79 l-34 -34 -101 0 -101 0 0
125 0 125 93 0 c74 0 98 -4 125 -20z"/>
<path d="M4805 2648 c-3 -7 -4 -186 -3 -398 l3 -385 65 0 c78 0 78 -1 79 161
l1 112 123 3 c113 4 126 6 170 32 167 98 165 356 -3 451 l-55 31 -188 3 c-149
3 -188 1 -192 -10z m327 -128 c101 -28 112 -188 17 -237 -14 -7 -62 -13 -111
-13 l-88 0 0 123 c0 68 3 127 7 130 10 11 134 8 175 -3z"/>
<path d="M6397 2654 c-4 -4 -7 -179 -7 -389 0 -283 3 -384 12 -393 7 -7 35
-12 63 -12 28 0 56 5 63 12 8 8 12 54 12 140 l0 128 60 0 59 0 72 -122 c96
-165 89 -158 171 -158 49 0 70 4 74 14 3 8 -31 73 -76 145 -45 72 -80 135 -78
140 1 5 23 24 47 42 67 51 96 115 95 209 0 83 -20 135 -71 181 -63 60 -82 64
-293 67 -107 2 -199 0 -203 -4z m370 -150 c66 -49 66 -159 0 -206 -27 -19 -47
-24 -129 -26 l-98 -4 0 124 c0 69 3 128 8 132 4 4 48 6 99 4 74 -2 97 -7 120
-24z"/>
<path d="M7064 2646 c-3 -7 -4 -38 -2 -67 l3 -54 107 -3 108 -3 2 -327 3 -327
58 -3 c35 -2 64 2 73 9 12 9 14 68 14 330 l0 319 105 0 c119 0 120 1 113 91
l-3 44 -288 3 c-237 2 -288 0 -293 -12z"/>
</g>
</svg>
